# xmcd CD database file
#
# Track frame offsets:
#	150
#	38317
#	70915
#	90340
#	116595
#	135470
#	157700
#	187510
#	212805
#	245595
#	267845
#
# Disc length: 3745 seconds
#
# Revision: 0
# Processed by: cddbd v1.4PL0 Copyright (c) Steve Scherf et al.
# Submitted via: CDex 1.50Beta7
#
DISCID=7f0e9f0b
DTITLE=Jean-Luc Ponty - The Best of the Pacific Jazz Years
DYEAR=2001
DGENRE=Jazz
TTITLE0=Cantaloupe Island
TTITLE1=Contact
TTITLE2=Pebble Beach Walk
TTITLE3=California
TTITLE4=The Loner
TTITLE5=Soul Summit
TTITLE6=Eighty-One
TTITLE7=Twenty Small Cigars
TTITLE8=How Would You Like To Have A Head Like That
TTITLE9=King Kong
TTITLE10=With A Little Help From My Friends
EXTD=YEAR: 2001
EXTT0=
EXTT1=
EXTT2=
EXTT3=
EXTT4=
EXTT5=
EXTT6=
EXTT7=
EXTT8=
EXTT9=
EXTT10=
PLAYORDER=
